<?xml version="1.0" encoding="utf-8"?>
<!-- Generator: Adobe Illustrator 26.0.1, SVG Export Plug-In . SVG Version: 6.00 Build 0)  -->
<svg version="1.1" id="Layer_1" xmlns="http://www.w3.org/2000/svg" xmlns:xlink="http://www.w3.org/1999/xlink" width="133.119" height="38.327" x="0px" y="0px"
	 viewBox="0 0 134 39" style="enable-background:new 0 0 134 39;" xml:space="preserve">
<style type="text/css">
	.st0{fill:#FFFFFF;}
	.st1{fill:#F2F2F2;}
	.st2{clip-path:url(#SVGID_00000085962938436593386290000017770192602148403884_);fill:#00AC8D;}
	.st3{clip-path:url(#SVGID_00000085962938436593386290000017770192602148403884_);}
	.st4{fill:#223F99;}
	.st5{fill-rule:evenodd;clip-rule:evenodd;fill:#FFFFFF;}
	.st6{clip-path:url(#SVGID_00000067196178519923913360000010295764015303467964_);fill:#00B48D;}
	.st7{clip-path:url(#SVGID_00000067196178519923913360000010295764015303467964_);}
	.st8{fill:#164D92;}
	.st9{fill:#231F20;}
</style>
<g id="Group_3" transform="translate(95.725 59.227)">
	<path id="Path_1" class="st0" d="M-95.3-34l8.8-24.2h6.1l8.8,24.2v1.5h-5.7l-2.2-6.5h-8.9l-2.1,6.5h-4.7V-34z M-87.2-42.9h6.4
		l-3.2-9.5h-0.1L-87.2-42.9z"/>
	<path id="Path_2" class="st0" d="M-69.9-33.8v-4h1.7c1.4,1.1,3.1,1.7,4.9,1.6c2.2,0,3.4-0.6,3.4-1.8c0-1.2-0.7-1.7-3.5-2.1
		c-4.4-0.5-6.7-2.1-6.7-5.9c0-3.9,3-6.1,7.9-6.1c2.2-0.1,4.3,0.4,6.2,1.3v3.9h-1.7c-1.3-0.9-2.9-1.3-4.5-1.3c-2.2,0-3,0.6-3,1.7
		c0,1,1,1.5,3.7,1.8c4.7,0.6,6.7,2.1,6.7,6c0,3.8-2.5,6.2-8.3,6.2C-65.5-32.1-67.8-32.7-69.9-33.8"/>
	<path id="Path_3" class="st0" d="M-54.1-51.8h2.3v-5.2h5.5v5.2h4v3.6h-4v9.9c0,1.8,0.8,2.3,2.6,2.3h1.5v3.2
		c-1.1,0.4-2.3,0.5-3.5,0.5c-3.8,0-6.1-1.5-6.1-5.5v-10.5h-2.3L-54.1-51.8z"/>
	<path id="Path_4" class="st0" d="M-35.9-40.9c0.3,3.9,2.2,4.9,5.2,4.9c1.9,0,3.7-0.5,5.3-1.6h1.7v3.5c-2.4,1.3-5.1,2-7.8,1.9
		c-6.5,0-10.1-3.7-10.1-9.8c0-6.2,4.2-10,9.7-10c5.8,0,8.9,3.1,8.9,9.5c0,0.7-0.1,1.5-0.1,1.7L-35.9-40.9z M-35.9-44.1h7.4
		c-0.1-3.4-1.3-4.5-3.5-4.5C-33.9-48.7-35.4-47.7-35.9-44.1"/>
	<path id="Path_5" class="st0" d="M-14.8-46.4v13.9h-5.5v-19.3h3.8c0.9,0,1.5,0.4,1.7,2.3c1.4-1.6,3.4-2.5,5.5-2.5
		c0.4,0,0.8,0.1,1.2,0.2v4.2h-0.9C-11-47.6-13-47.2-14.8-46.4"/>
	<path id="Path_6" class="st0" d="M-95.3-34l8.8-24.2h6.1l8.8,24.2v1.5h-5.7l-2.2-6.5h-8.9l-2.1,6.5h-4.7V-34z M-87.2-42.9h6.4
		l-3.2-9.5h-0.1L-87.2-42.9z"/>
	<path id="Path_7" class="st0" d="M-69.9-33.8v-4h1.7c1.4,1.1,3.1,1.7,4.9,1.6c2.2,0,3.4-0.6,3.4-1.8c0-1.2-0.7-1.7-3.5-2.1
		c-4.4-0.5-6.7-2.1-6.7-5.9c0-3.9,3-6.1,7.9-6.1c2.2-0.1,4.3,0.4,6.2,1.3v3.9h-1.7c-1.3-0.9-2.9-1.3-4.5-1.3c-2.2,0-3,0.6-3,1.7
		c0,1,1,1.5,3.7,1.8c4.7,0.6,6.7,2.1,6.7,6c0,3.8-2.5,6.2-8.3,6.2C-65.5-32.1-67.8-32.7-69.9-33.8"/>
	<path id="Path_8" class="st0" d="M-54.1-51.8h2.3v-5.2h5.5v5.2h4v3.6h-4v9.9c0,1.8,0.8,2.3,2.6,2.3h1.5v3.2
		c-1.1,0.4-2.3,0.5-3.5,0.5c-3.8,0-6.1-1.5-6.1-5.5v-10.5h-2.3L-54.1-51.8z"/>
	<path id="Path_9" class="st0" d="M-35.9-40.9c0.3,3.9,2.2,4.9,5.2,4.9c1.9,0,3.7-0.5,5.3-1.6h1.7v3.5c-2.4,1.3-5.1,2-7.8,1.9
		c-6.5,0-10.1-3.7-10.1-9.8c0-6.2,4.2-10,9.7-10c5.8,0,8.9,3.1,8.9,9.5c0,0.7-0.1,1.5-0.1,1.7L-35.9-40.9z M-35.9-44.1h7.4
		c-0.1-3.4-1.3-4.5-3.5-4.5C-33.9-48.7-35.4-47.7-35.9-44.1"/>
	<path id="Path_10" class="st0" d="M-14.8-46.4v13.9h-5.5v-19.3h3.8c0.9,0,1.5,0.4,1.7,2.3c1.4-1.6,3.4-2.5,5.5-2.5
		c0.4,0,0.8,0.1,1.2,0.2v4.2h-0.9C-11-47.6-13-47.2-14.8-46.4"/>
</g>
<g id="Group_220" transform="translate(110.768 91.352)">
	<path id="Path_34" class="st1" d="M-94.8-58l0.9,4.8h0.2l1.1-4.7h0.5l1.1,4.7h0.2l0.9-4.8h0.5l-1.1,5.2h-0.9l-1-4.6l-1,4.6h-0.9
		l-1.1-5.2H-94.8z"/>
	<path id="Path_35" class="st1" d="M-86.2-54.8c0-1-0.3-1.4-1-1.4c-0.7,0-1.1,0.4-1.1,1.4H-86.2z M-85.9-53.2l0,0.4
		c0,0-0.8,0.1-1.4,0.1c-1.1,0-1.5-0.7-1.5-1.9c0-1.4,0.6-2,1.5-2c1,0,1.5,0.5,1.5,1.8l0,0.4h-2.6c0,0.9,0.3,1.4,1,1.4
		C-86.7-53.1-85.9-53.2-85.9-53.2"/>
	<path id="Path_36" class="st1" d="M-84.7-58.1h0.5l-0.4,1.6H-85L-84.7-58.1z"/>
	<rect id="Rectangle_6" x="-83.3" y="-58.2" class="st1" width="0.4" height="5.4"/>
	<rect id="Rectangle_7" x="-81.6" y="-58.2" class="st1" width="0.4" height="5.4"/>
	<path id="Path_37" class="st1" d="M-78.8-58h3.8v0.4h-1.6v4.8h-0.5v-4.8h-1.7V-58z"/>
	<path id="Path_38" class="st1" d="M-75.1-56.5h0.4v0.5c0.4-0.3,0.9-0.5,1.4-0.6v0.4c-0.5,0.1-1,0.3-1.4,0.6v2.8h-0.4V-56.5z"/>
	<path id="Path_39" class="st1" d="M-70.3-54.8c0-1-0.3-1.4-1-1.4c-0.7,0-1.1,0.4-1.1,1.4H-70.3z M-70-53.2l0,0.4
		c0,0-0.8,0.1-1.4,0.1c-1.1,0-1.5-0.7-1.5-1.9c0-1.4,0.6-2,1.5-2c1,0,1.5,0.5,1.5,1.8l0,0.4h-2.6c0,0.9,0.3,1.4,1,1.4
		C-70.8-53.1-70-53.2-70-53.2"/>
	<path id="Path_40" class="st1" d="M-68-54.6c-0.5,0-0.7,0.3-0.7,0.7c0,0.5,0.2,0.8,0.6,0.8c0.4,0,0.9-0.1,1.3-0.3v-1.4L-68-54.6z
		 M-66.3-53.4c0,0.2,0.2,0.3,0.5,0.3l0,0.4c-0.3,0-0.6-0.1-0.8-0.3c-0.4,0.2-0.9,0.3-1.4,0.3c-0.7,0-1-0.4-1-1.1
		c0-0.7,0.3-1,1.1-1.1l1.3-0.1v-0.4c0-0.6-0.3-0.8-0.7-0.8c-0.5,0-1.4,0.1-1.4,0.1l0-0.4c0.5-0.1,1-0.1,1.5-0.2
		c0.8,0,1.2,0.4,1.2,1.2L-66.3-53.4z"/>
	<path id="Path_41" class="st1" d="M-64.5-56.1v1.8c0,0.9,0.1,1.2,0.6,1.2c0.2,0,0.7-0.1,0.7-0.1l0,0.4c-0.3,0-0.5,0.1-0.8,0.1
		c-0.7,0-1-0.3-1-1.4v-2.1h-0.6v-0.4h0.6v-1.2h0.5v1.2h1.3v0.4H-64.5z"/>
	<path id="Path_42" class="st1" d="M-59.2-52.8h-0.5V-55l-1.7-3h0.5l1.4,2.5l1.4-2.5h0.5l-1.7,3L-59.2-52.8z"/>
	<path id="Path_43" class="st1" d="M-54.9-54.7c0-1.1-0.3-1.5-1.1-1.5s-1.1,0.4-1.1,1.5c0,1.1,0.1,1.6,1.1,1.6S-54.9-53.6-54.9-54.7
		 M-54.5-54.7c0,1.4-0.3,2-1.6,2s-1.6-0.6-1.6-2c0-1.3,0.4-1.9,1.6-1.9S-54.5-56-54.5-54.7"/>
	<path id="Path_44" class="st1" d="M-50.7-56.5v3.8h-0.4v-0.3c-0.4,0.2-0.7,0.3-1.2,0.4c-1,0-1.3-0.5-1.3-1.9v-2h0.4v2
		c0,1.1,0.1,1.5,0.9,1.5c0.4,0,0.8-0.1,1.1-0.3v-3.1L-50.7-56.5z"/>
	<path id="Path_45" class="st1" d="M-47.7-58l0.9,4.8h0.2l1.1-4.7h0.5l1.1,4.7h0.2l0.9-4.8h0.5l-1.1,5.2h-0.9l-1-4.6l-1,4.6h-0.9
		l-1.1-5.2H-47.7z"/>
	<path id="Path_46" class="st1" d="M-39.1-54.8c0-1-0.3-1.4-1-1.4c-0.7,0-1.1,0.4-1.1,1.4H-39.1z M-38.8-53.2l0,0.4
		c0,0-0.8,0.1-1.4,0.1c-1.1,0-1.5-0.7-1.5-1.9c0-1.4,0.6-2,1.5-2c1,0,1.5,0.5,1.5,1.8l0,0.4h-2.6c0,0.9,0.3,1.4,1,1.4
		C-39.6-53.1-38.8-53.2-38.8-53.2"/>
	<rect id="Rectangle_8" x="-37.7" y="-58.2" class="st1" width="0.4" height="5.4"/>
	<rect id="Rectangle_9" x="-36" y="-58.2" class="st1" width="0.4" height="5.4"/>
</g>
<g>
	<path class="st0" d="M133.4,19.1c0,10.3-8.3,18.6-18.6,18.6c-10.3,0-18.6-8.3-18.6-18.6c0-10.3,8.3-18.6,18.6-18.6
		C125.1,0.5,133.4,8.8,133.4,19.1z"/>
	<g>
		<defs>
			<path id="SVGID_1_" d="M127.8,18.7c0,7.2-5.8,13-13,13c-7.2,0-13-5.8-13-13c0-7.2,5.8-13,13-13C121.9,5.7,127.8,11.5,127.8,18.7z
				"/>
		</defs>
		<clipPath id="SVGID_00000001631305496018685470000015526635832640234643_">
			<use xlink:href="#SVGID_1_"  style="overflow:visible;"/>
		</clipPath>
		<path style="clip-path:url(#SVGID_00000001631305496018685470000015526635832640234643_);fill:#00AC8D;" d="M101.1,18.7
			c0-7.5,6.1-13.6,13.6-13.6c7.5,0,13.6,6.1,13.6,13.6c0,7.5-6.1,13.6-13.6,13.6C107.2,32.3,101.1,26.2,101.1,18.7L101.1,18.7z"/>
		<g style="clip-path:url(#SVGID_00000001631305496018685470000015526635832640234643_);">
			<g>
				<path class="st4" d="M101,18.5c0-7.5,6.1-13.6,13.6-13.6c6.2,0,11.7,3.8,13.3,9.5c-0.1,0.1-0.6,0.5-0.9,0.5
					c-1,0-2.5,1.3-2.5,1.3l-2.7,3.1l-4.9,4.9c0,0-0.5,0.1-0.5-0.7c0-0.8-0.7-3.8-0.7-3.8s-0.3,0.9-1.2,1.9c-0.9,1-4.9,3.3-7.4,3.5
					c-2.5,0.2-3.8-1.3-3.8-1.3c-0.8-1.1-1.5-2.4-1.8-2.6C101.1,20,101,19.7,101,18.5z"/>
			</g>
		</g>
	</g>
	<path class="st5" d="M116.7,14.9c0,0-0.1-0.1-0.3,0.6c-0.2,0.7-0.2,2.8-0.2,2.8c0.4-0.5,1.2-2.4,1.2-3
		C117.3,14.6,116.7,14.9,116.7,14.9z M113.5,18.8C113.5,18.8,113.5,18.8,113.5,18.8c0,0,0.2,0,0.4,0.1c0.2,0.1,0.3,0.5,0.2,0.6
		c-0.2,0.1-1.9,1.2-2.3,1c-0.4-0.2-2-1.8-3-2.4c-1-0.7-5.8-2.2-6,1.8c-0.2,4.1,4,5.3,6.6,4.3c2.7-0.9,5.6-4.4,5.6-4.4
		c0-3.1,0.3-3.9,0.8-5.1c0.6-1.2,2.6-1.3,2.3,0.8c-0.3,2.1-2,4.1-2,4.1c0.5,1.1,0.8,4,0.8,4s4.6-5.4,6.6-7.5c2-2,3.6-1.3,3.6-1.3
		c-0.5,0.2-0.6,1.7-0.7,2c-0.1,0.2-0.6,0-0.6,0l0.1-0.5c-0.9-1.3-2.6,1-3.5,2.9c-0.9,1.9-1.3,5.7-1.3,5.7l1.2,0.1v0.7
		c-1.1,0.1-2.5,0.8-2.5,0.8s0-0.3,0-1.4c0.1-1.2,1-4.8,1-4.8s-1.5,1.6-2,2.3c-0.5,0.7-3.1,3.6-3.1,3.6l-0.4-0.4c0,0,0.4-1.8,0.3-2.4
		c-0.1-0.7-0.4-2.2-0.4-2.2l-1,1c-1.6,1.7-4.1,2.9-4.1,2.9c-7.9,2.5-9.6-4.6-7.5-7.2c2.1-2.6,5.1-1.5,5.8-1.2
		c0.9,0.4,3.9,2.8,4.3,2.9C113.2,19.4,113.4,19,113.5,18.8C113.5,18.8,113.5,18.8,113.5,18.8z"/>
	<path class="st0" d="M133.4,19.1c0,10.3-8.3,18.6-18.6,18.6c-10.3,0-18.6-8.3-18.6-18.6c0-10.3,8.3-18.6,18.6-18.6
		C125.1,0.5,133.4,8.8,133.4,19.1z"/>
	<g>
		<defs>
			<path id="SVGID_00000054953661224485466320000009978253140349747089_" d="M127.8,18.7c0,7.2-5.8,13-13,13c-7.2,0-13-5.8-13-13
				c0-7.2,5.8-13,13-13C121.9,5.7,127.8,11.5,127.8,18.7z"/>
		</defs>
		<clipPath id="SVGID_00000142880270431042853970000007136138358866848645_">
			<use xlink:href="#SVGID_00000054953661224485466320000009978253140349747089_"  style="overflow:visible;"/>
		</clipPath>
		<path style="clip-path:url(#SVGID_00000142880270431042853970000007136138358866848645_);fill:#00B48D;" d="M101.1,18.7
			c0-7.5,6.1-13.6,13.6-13.6c7.5,0,13.6,6.1,13.6,13.6c0,7.5-6.1,13.6-13.6,13.6C107.2,32.3,101.1,26.2,101.1,18.7L101.1,18.7z"/>
		<g style="clip-path:url(#SVGID_00000142880270431042853970000007136138358866848645_);">
			<g>
				<path class="st8" d="M101,18.5c0-7.5,6.1-13.6,13.6-13.6c6.2,0,11.7,3.8,13.3,9.5c-0.1,0.1-0.6,0.5-0.9,0.5
					c-1,0-2.5,1.3-2.5,1.3l-2.7,3.1l-4.9,4.9c0,0-0.5,0.1-0.5-0.7c0-0.8-0.7-3.8-0.7-3.8s-0.3,0.9-1.2,1.9c-0.9,1-4.9,3.3-7.4,3.5
					c-2.5,0.2-3.8-1.3-3.8-1.3c-0.8-1.1-1.5-2.4-1.8-2.6C101.1,20,101,19.7,101,18.5z"/>
			</g>
		</g>
	</g>
	<path class="st5" d="M116.7,14.9c0,0-0.1-0.1-0.3,0.6c-0.2,0.7-0.2,2.8-0.2,2.8c0.4-0.5,1.2-2.4,1.2-3
		C117.3,14.6,116.7,14.9,116.7,14.9z M113.5,18.8C113.5,18.8,113.5,18.8,113.5,18.8c0,0,0.2,0,0.4,0.1c0.2,0.1,0.3,0.5,0.2,0.6
		c-0.2,0.1-1.9,1.2-2.3,1c-0.4-0.2-2-1.8-3-2.4c-1-0.7-5.8-2.2-6,1.8c-0.2,4.1,4,5.3,6.6,4.3c2.7-0.9,5.6-4.4,5.6-4.4
		c0-3.1,0.3-3.9,0.8-5.1c0.6-1.2,2.6-1.3,2.3,0.8c-0.3,2.1-2,4.1-2,4.1c0.5,1.1,0.8,4,0.8,4s4.6-5.4,6.6-7.5c2-2,3.6-1.3,3.6-1.3
		c-0.5,0.2-0.6,1.7-0.7,2c-0.1,0.2-0.6,0-0.6,0l0.1-0.5c-0.9-1.3-2.6,1-3.5,2.9c-0.9,1.9-1.3,5.7-1.3,5.7l1.2,0.1v0.7
		c-1.1,0.1-2.5,0.8-2.5,0.8s0-0.3,0-1.4c0.1-1.2,1-4.8,1-4.8s-1.5,1.6-2,2.3c-0.5,0.7-3.1,3.6-3.1,3.6l-0.4-0.4c0,0,0.4-1.8,0.3-2.4
		c-0.1-0.7-0.4-2.2-0.4-2.2l-1,1c-1.6,1.7-4.1,2.9-4.1,2.9c-7.9,2.5-9.6-4.6-7.5-7.2c2.1-2.6,5.1-1.5,5.8-1.2
		c0.9,0.4,3.9,2.8,4.3,2.9C113.2,19.4,113.4,19,113.5,18.8C113.5,18.8,113.5,18.8,113.5,18.8z"/>
	<g>
		<path class="st9" d="M106.5,31.4l-0.4,0c0-0.1,0-0.2,0-0.3c0-0.1-0.1-0.1-0.2-0.2c-0.1-0.1-0.2-0.1-0.3-0.1c-0.1,0-0.2,0-0.2,0.1
			c-0.1,0.1-0.1,0.3,0,0.5l0.2,0.3c0.1,0.2,0.2,0.4,0.2,0.6c0,0.2-0.1,0.3-0.2,0.5c-0.2,0.2-0.4,0.3-0.6,0.4c-0.2,0-0.5,0-0.7-0.2
			c-0.2-0.1-0.3-0.3-0.4-0.5c0-0.2,0-0.4,0.1-0.7l0.4,0.2c-0.1,0.1-0.1,0.3-0.1,0.3c0,0.2,0.1,0.3,0.2,0.4c0.1,0.1,0.2,0.1,0.3,0.1
			c0.1,0,0.2-0.1,0.3-0.2c0,0,0.1-0.1,0.1-0.1c0,0,0-0.1,0-0.1c0,0,0-0.1,0-0.2c0-0.1,0-0.1-0.1-0.2l-0.1-0.3
			c-0.2-0.4-0.2-0.7,0-0.9c0.1-0.2,0.3-0.3,0.5-0.3c0.2,0,0.4,0,0.6,0.2C106.5,30.7,106.6,31,106.5,31.4z"/>
		<path class="st9" d="M107.6,31.5l-1.4,2.4l-0.4-0.2l1.4-2.4L107.6,31.5z"/>
		<path class="st9" d="M106.9,34.4l1.2-2.8l1.1,2.8l0.8-1.8l0.4,0.2l-1.2,2.8l-1.1-2.8l-0.8,1.8L106.9,34.4z"/>
		<path class="st9" d="M112.8,33.5l-0.1,0.5c-0.2-0.3-0.4-0.4-0.7-0.5c-0.3-0.1-0.5,0-0.8,0.1c-0.2,0.2-0.4,0.4-0.5,0.7
			c-0.1,0.3,0,0.6,0.1,0.8c0.2,0.2,0.4,0.4,0.7,0.5c0.1,0,0.3,0,0.4,0c0.1,0,0.1,0,0.2-0.1c0.1,0,0.1-0.1,0.2-0.1l-0.1,0.5
			c-0.3,0.1-0.5,0.1-0.8,0c-0.4-0.1-0.7-0.3-0.9-0.6c-0.2-0.3-0.3-0.7-0.2-1.1c0.1-0.4,0.3-0.6,0.6-0.9c0.4-0.3,0.8-0.4,1.2-0.3
			C112.3,33.2,112.6,33.3,112.8,33.5z"/>
		<path class="st9" d="M114.7,33.9l-1.1-0.1l0,0.7l1.1,0.1l0,0.4l-1.1-0.1l-0.1,0.9l1.1,0.1l0,0.4l-1.6-0.1l0.2-2.8l1.6,0.1
			L114.7,33.9z"/>
		<path class="st9" d="M116.9,33.7l-0.5,0.1l0.2-0.4l0.7-0.1l0.4,2.8l-0.4,0.1L116.9,33.7z"/>
		<path class="st9" d="M119.3,35.8l-0.4-0.1l0.4-1.1c0,0-0.1,0-0.1,0c0,0,0,0-0.1,0c-0.2,0.1-0.4,0-0.6-0.1
			c-0.2-0.1-0.3-0.3-0.4-0.5c-0.1-0.2,0-0.5,0.1-0.7c0.1-0.2,0.3-0.4,0.6-0.5c0.2-0.1,0.5,0,0.7,0.1c0.2,0.1,0.4,0.3,0.5,0.5
			c0.1,0.2,0,0.5-0.1,0.8L119.3,35.8z M118.6,33.8c0,0.1,0.1,0.3,0.3,0.3c0.1,0.1,0.3,0.1,0.4,0c0.1,0,0.2-0.1,0.3-0.3
			c0.1-0.1,0.1-0.3,0-0.4c0-0.1-0.1-0.2-0.3-0.3c-0.1-0.1-0.3-0.1-0.4,0c-0.1,0-0.2,0.1-0.3,0.3C118.5,33.6,118.5,33.7,118.6,33.8z"
			/>
		<path class="st9" d="M120.9,33.6c-0.2,0-0.4-0.2-0.5-0.4c-0.1-0.2-0.1-0.4,0-0.6c0.1-0.2,0.2-0.4,0.4-0.5c0.2-0.1,0.4-0.1,0.6,0
			c0.2,0.1,0.4,0.2,0.5,0.4c0.1,0.2,0.1,0.4,0,0.7c0.1,0,0.2,0.1,0.4,0.1c0.1,0.1,0.2,0.2,0.3,0.3c0.1,0.2,0.1,0.4,0,0.7
			c-0.1,0.2-0.2,0.4-0.5,0.5c-0.2,0.1-0.5,0.1-0.7,0c-0.2-0.1-0.4-0.2-0.5-0.4C120.7,34,120.8,33.8,120.9,33.6z M120.8,33
			c0.1,0.1,0.1,0.2,0.2,0.2c0.1,0,0.2,0,0.3,0c0.1,0,0.2-0.1,0.2-0.2c0-0.1,0-0.2,0-0.3c0-0.1-0.1-0.2-0.2-0.2c-0.1,0-0.2,0-0.3,0
			c-0.1,0-0.2,0.1-0.2,0.2C120.7,32.8,120.7,32.9,120.8,33z M121.2,34.1c0.1,0.1,0.1,0.2,0.3,0.2c0.1,0,0.2,0,0.4,0
			c0.1-0.1,0.2-0.1,0.2-0.3c0-0.1,0-0.2,0-0.4c-0.1-0.1-0.1-0.2-0.3-0.2c-0.1,0-0.2,0-0.4,0c-0.1,0.1-0.2,0.1-0.2,0.3
			C121.2,33.9,121.2,34,121.2,34.1z"/>
		<path class="st9" d="M123.2,31.3L122,32l-0.2-0.3l1.8-1.1l0.1,3.4l-0.4,0L123.2,31.3z"/>
	</g>
	<path class="st9" d="M114.8,37.8c-10.3,0-18.7-8.4-18.7-18.7c0-10.3,8.4-18.7,18.7-18.7c10.3,0,18.7,8.4,18.7,18.7
		C133.6,29.4,125.2,37.8,114.8,37.8z M114.8,0.5c-10.2,0-18.5,8.3-18.5,18.5c0,10.2,8.3,18.5,18.5,18.5c10.2,0,18.5-8.3,18.5-18.5
		C133.4,8.9,125,0.5,114.8,0.5z"/>
	<g>
		<path class="st9" d="M100.3,15.3l-0.3,1.2l0.6,0.5l-0.1,0.4l-2.6-2l3.2-0.7l-0.1,0.5L100.3,15.3z M99.8,15.4l-1,0.2l0.8,0.6
			L99.8,15.4z"/>
		<path class="st9" d="M99.6,12.1l0.1,0.4c-0.1,0-0.2,0-0.3,0.1c-0.1,0-0.1,0.1-0.1,0.2c0,0.1,0,0.2,0,0.3c0,0.1,0.1,0.2,0.2,0.2
			c0.1,0.1,0.3,0,0.4-0.2l0.2-0.2c0.2-0.2,0.3-0.3,0.5-0.3c0.2,0,0.3,0,0.5,0c0.2,0.1,0.4,0.3,0.5,0.5c0.1,0.2,0.1,0.5,0,0.7
			c-0.1,0.2-0.2,0.4-0.4,0.5c-0.2,0.1-0.4,0.1-0.7,0l0.1-0.4c0.2,0,0.3,0.1,0.4,0c0.1,0,0.2-0.1,0.3-0.3c0-0.1,0-0.2,0-0.4
			c0-0.1-0.1-0.2-0.3-0.2c-0.1,0-0.1,0-0.1,0c0,0-0.1,0-0.1,0c0,0-0.1,0-0.1,0.1c-0.1,0-0.1,0.1-0.2,0.1l-0.2,0.2
			c-0.3,0.3-0.6,0.4-0.9,0.3c-0.2-0.1-0.3-0.2-0.4-0.4c-0.1-0.2-0.1-0.4,0-0.6C99,12.3,99.2,12.1,99.6,12.1z"/>
		<path class="st9" d="M100.4,10.6l2.1,1.2l-0.2,0.4l-2.1-1.2l-0.3,0.6l-0.3-0.2l0.9-1.5l0.3,0.2L100.4,10.6z"/>
		<path class="st9" d="M102,8.3l-0.7,0.9l0.5,0.4l0.7-0.9l0.3,0.2l-0.7,0.9l0.8,0.6l0.7-0.9l0.3,0.2L103,11l-2.3-1.7l0.9-1.2
			L102,8.3z"/>
		<path class="st9" d="M104,7.9l1.5,0.2l-0.4,0.4l-1.4-0.3l-0.1,0.1l0.8,0.8l-0.3,0.3l-2-2l0.4-0.4c0.3-0.3,0.5-0.4,0.7-0.4
			c0.2,0,0.5,0.1,0.6,0.2c0.1,0.1,0.2,0.3,0.2,0.5C104.2,7.6,104.2,7.7,104,7.9z M103.4,8L103.4,8c0.4-0.4,0.4-0.6,0.2-0.9
			c-0.2-0.2-0.4-0.2-0.7,0.1l-0.1,0.1L103.4,8z"/>
		<path class="st9" d="M106.7,7.3l-1.4-2.4l0.5-0.3c0.2-0.1,0.5-0.2,0.6-0.3c0.2,0,0.4,0,0.6,0c0.4,0.1,0.7,0.3,0.9,0.7
			c0.2,0.4,0.3,0.8,0.1,1.1c-0.1,0.2-0.2,0.4-0.3,0.5c-0.1,0.1-0.3,0.3-0.5,0.4L106.7,7.3z M106.8,6.7l0.2-0.1
			c0.2-0.1,0.3-0.2,0.4-0.3c0.1-0.1,0.2-0.2,0.2-0.4c0.1-0.3,0-0.5-0.1-0.8c-0.2-0.3-0.4-0.4-0.7-0.5c-0.2-0.1-0.5,0-0.8,0.2
			L105.8,5L106.8,6.7z"/>
		<path class="st9" d="M108.8,6l-0.4-3.1l1.6,1.8l0.3-2.4l1.5,2.7l-0.4,0.1l-0.8-1.5l-0.2,2L109,4.1l0.3,1.7L108.8,6z"/>
		<path class="st9" d="M113.7,3.1l1.2,0l0-1.1l0.4,0l0.1,2.8l-0.4,0l0-1.3l-1.2,0l0,1.3l-0.4,0L113.2,2l0.4,0L113.7,3.1z"/>
		<path class="st9" d="M117.8,2.6l-1.1-0.1l-0.1,0.7l1.1,0.1l-0.1,0.4l-1.1-0.1l-0.1,0.9l1.1,0.1L117.5,5l-1.5-0.2l0.4-2.8l1.5,0.2
			L117.8,2.6z"/>
		<path class="st9" d="M119.7,4.9l-1.2-0.3l-0.5,0.6L117.6,5l2.2-2.5l0.4,3.3l-0.4-0.1L119.7,4.9z M119.7,4.5l-0.1-1l-0.7,0.8
			L119.7,4.5z"/>
		<path class="st9" d="M122.1,3.6l-1,2.2l0.8,0.4l-0.2,0.4l-1.1-0.5l1.2-2.6L122.1,3.6z"/>
		<path class="st9" d="M123.7,4.9L122.4,7l-0.4-0.2l1.3-2.1l-0.6-0.3L123,4l1.5,0.9l-0.2,0.3L123.7,4.9z"/>
		<path class="st9" d="M124.6,6.4l0.9,0.8l0.7-0.8l0.3,0.3l-1.8,2.2l-0.3-0.3l0.8-1l-0.9-0.8l-0.8,1l-0.3-0.3l1.8-2.2l0.3,0.3
			L124.6,6.4z"/>
		<path class="st9" d="M128.6,9.1l-0.4,0.3c0-0.3-0.1-0.6-0.3-0.8c-0.2-0.2-0.4-0.3-0.7-0.4c-0.3,0-0.5,0.1-0.8,0.3
			c-0.2,0.2-0.4,0.4-0.4,0.7c0,0.3,0,0.5,0.2,0.8c0.1,0.1,0.2,0.2,0.3,0.2c0.1,0,0.1,0.1,0.2,0.1c0.1,0,0.2,0,0.2,0.1l-0.4,0.3
			c-0.3-0.1-0.5-0.3-0.7-0.5c-0.3-0.3-0.4-0.7-0.3-1.1c0-0.4,0.2-0.7,0.5-1c0.3-0.2,0.6-0.3,1-0.3c0.5,0,0.8,0.2,1.1,0.5
			C128.4,8.6,128.5,8.8,128.6,9.1z"/>
		<path class="st9" d="M128.2,12.3l-0.6-1.1l-0.8,0.1l-0.2-0.4l3.3-0.2l-2,2.6l-0.2-0.4L128.2,12.3z M128.5,12l0.6-0.8l-1.1,0.1
			L128.5,12z"/>
		<path class="st9" d="M129.5,14.1l-0.8,1.2l-0.2-0.5l0.8-1.1l0-0.1l-1.1,0.4l-0.1-0.4l2.7-0.9l0.2,0.5c0.1,0.4,0.1,0.6,0.1,0.8
			c-0.1,0.2-0.2,0.4-0.5,0.5c-0.2,0.1-0.4,0.1-0.5,0C129.7,14.3,129.6,14.2,129.5,14.1z M129.6,13.4l0,0.1c0.1,0.4,0.3,0.5,0.6,0.4
			c0.3-0.1,0.3-0.3,0.2-0.7l-0.1-0.1L129.6,13.4z"/>
		<path class="st9" d="M131.4,16.7l-0.2-1.1l-0.7,0.1l0.2,1.1l-0.4,0.1l-0.2-1.1l-0.9,0.2l0.2,1.1l-0.4,0.1l-0.3-1.5l2.8-0.5
			l0.3,1.5L131.4,16.7z"/>
	</g>
</g>
</svg>
