<svg xmlns="http://www.w3.org/2000/svg" width="42.827" height="42.827" viewBox="0 0 42.827 42.827">
  <g id="Group_1" data-name="Group 1" transform="translate(31.334 -293.526)">
    <path id="Path_1" data-name="Path 1" d="M25.064,40.128a4.064,4.064,0,1,1,4.064-4.064A4.069,4.069,0,0,1,25.064,40.128Z" transform="translate(-38.942 282.174)" fill="#42a895" stroke="#42a895" stroke-width="0.4"/>
    <path id="Path_2" data-name="Path 2" d="M34.248,24.951l-2.034,2.034L31.1,21.4l-.8-4.553a9.229,9.229,0,0,0-15.826-4.715l-1.319-1.319a2.055,2.055,0,0,1-.6-1.294L12.04,2.837A2,2,0,0,0,10.057,1a1.961,1.961,0,0,0-.482.06L8.14,1.418a2.2,2.2,0,0,0-1.6,2.666L7.654,8.539a.393.393,0,0,1-.617.41L5.252,7.61a2.261,2.261,0,0,0-3.237.555l-.651.977A2.171,2.171,0,0,0,2.2,12.288L5.016,13.7a2.629,2.629,0,0,1,1.306,1.49A8.21,8.21,0,0,0,1,22.9,16.306,16.306,0,0,0,5.411,34.076,31.4,31.4,0,0,0,16.658,41.8l3.429,1.375a3.5,3.5,0,0,0,1.3.25,3,3,0,0,0,1.894-.676l.339-.276a26.4,26.4,0,0,0,8.783-13.746l2.408-2.409h8.613V24.951ZM21.194,10.58a7.857,7.857,0,0,1,5.575,2.311l-.718.12a8.083,8.083,0,0,0-3.714,1.658,6.348,6.348,0,0,1-3.951,1.386h-.113a6.289,6.289,0,0,1-3.981-1.414c.142-.238.292-.473.452-.7A7.877,7.877,0,0,1,21.194,10.58ZM5.629,12.472,2.811,11.063A.8.8,0,0,1,2.5,9.9l.651-.977a.919.919,0,0,1,1.277-.219l1.784,1.339A1.762,1.762,0,0,0,8.982,8.209L7.868,3.753a.808.808,0,0,1-.025-.2.827.827,0,0,1,.628-.8l1.436-.359a.633.633,0,0,1,.767.554l.514,6.682a3.42,3.42,0,0,0,.992,2.157L13.6,13.2a13.106,13.106,0,0,0-1.132,1.991l-1.71-.342a8.126,8.126,0,0,0-1.6-.159h-.09a7.9,7.9,0,0,0-1.425.136,3.991,3.991,0,0,0-2.013-2.351Zm3.438,3.583h.09a6.828,6.828,0,0,1,1.33.131l1.463.293a13.015,13.015,0,0,0-.684,4.159v.371a3.867,3.867,0,0,1-3.875,3.942,6.441,6.441,0,0,1-4.583-1.9l-.424-.426A6.768,6.768,0,0,1,9.067,16.055Zm13.69,25.36-.339.277a1.836,1.836,0,0,1-1.822.214l-3.428-1.373A30.027,30.027,0,0,1,6.414,33.145a14.991,14.991,0,0,1-3.945-8.561,7.791,7.791,0,0,0,4.92,1.736,5.283,5.283,0,0,0,5.244-5.311v-.371a11.622,11.622,0,0,1,1.022-4.762,7.65,7.65,0,0,0,4.619,1.548h.113a7.72,7.72,0,0,0,4.806-1.686,6.715,6.715,0,0,1,3.083-1.377l1.482-.247a7.857,7.857,0,0,1,1.188,2.971l.778,4.409-1.971,6.9L24.931,16.407l-1.9,8.544H20.845v1.369h3.286l.839-3.775,2.654,11.279,2.684-9.394.784,3.918a25.019,25.019,0,0,1-8.334,13.066Z" transform="translate(-32.134 292.726)" fill="#42a895" stroke="#42a895" stroke-width="0.4"/>
  </g>
</svg>
