<svg xmlns="http://www.w3.org/2000/svg" width="47.702" height="42.153" viewBox="0 0 47.702 42.153">
  <g id="brainstorm" transform="translate(-0.001 -0.001)">
    <path id="Path_2160" data-name="Path 2160" d="M45.2,19.627a.923.923,0,0,0,.067-.19,4.21,4.21,0,0,0-1.431-4.411c-.2-1.663-1.772-2.727-3.054-3.24A5.539,5.539,0,0,0,39.012,8a8.22,8.22,0,0,0-5.373-1.763H33.6c-1.17-2-3.849-2.093-5.41-1.8a21.28,21.28,0,0,0-2.748-.741.935.935,0,1,0-.362,1.835,19.584,19.584,0,0,1,2.735.756.931.931,0,0,0,.527.029c.031-.007,3.118-.709,3.795,1.2a.938.938,0,0,0,.971.618c.029,0,2.975-.262,4.652,1.265a3.539,3.539,0,0,1,1.1,2.1,4.79,4.79,0,0,0-4.254,2.532.935.935,0,1,0,1.669.844c.863-1.707,3.006-1.535,3.395-1.489.346.114,2.4.845,2.314,2.1a.935.935,0,0,0,.5.892,2.195,2.195,0,0,1,.623.58,2.355,2.355,0,0,1,.37,1.881l-.063.084a4.209,4.209,0,0,0-3.933,3.773.936.936,0,0,0,.827,1.032,1,1,0,0,0,.1.005.935.935,0,0,0,.928-.833,2.375,2.375,0,0,1,2.292-2.118c4.1,3.006,1.205,10.017,1.014,10.466-1.015,1.94-2.288,2.932-3.884,3.023a13.747,13.747,0,0,0-5.606-2.593.935.935,0,1,0-.436,1.819,12.162,12.162,0,0,1,4.765,2.146,3.492,3.492,0,0,1-.1.757c-.665,2.643-4.242,4.029-7.974,3.089a9.627,9.627,0,0,1-1.778-.638.935.935,0,0,0-1.333.762,12.68,12.68,0,0,0,.154,3.48L26,43.494c-.1-.372-.21-.807-.324-1.28-.549-2.273-1.341-5.551-3.672-8.242a36.165,36.165,0,0,1,5.566-.929.935.935,0,1,0-.153-1.864,39.732,39.732,0,0,0-7.411,1.382,20.591,20.591,0,0,1-4.228.177c-4.054-.609-5.186-3.059-4.923-4.974a.935.935,0,0,0-1.149-1.036l-.678.166c-1.182-.059-4.138-.516-5.468-2.065a3.041,3.041,0,0,1-.676-2.486A.935.935,0,0,0,2.4,21.4a1.178,1.178,0,0,1-.5-.665,2.11,2.11,0,0,1,.525-1.523.936.936,0,0,0,.122-.873,5.426,5.426,0,0,1,.091-3.661,4.043,4.043,0,0,1,2.5-2.014.926.926,0,0,0,.629-.805,2.872,2.872,0,0,1,.984-1.842A3.158,3.158,0,0,1,9.3,9.681a.935.935,0,0,0,1.107-.77c0-.02.422-1.967,4.071-2.036.554.756,1.775,2.742.869,4.521a.935.935,0,1,0,1.667.849,4.822,4.822,0,0,0,.524-1.967,3.091,3.091,0,0,1,1.918-.259,1.575,1.575,0,0,1,.959.9.935.935,0,0,0,1.682-.82,3.433,3.433,0,0,0-2.109-1.879,4.518,4.518,0,0,0-2.693.142,8.393,8.393,0,0,0-.966-2.094A12.221,12.221,0,0,1,18.1,5.667a.935.935,0,1,0-.475-1.809A12.812,12.812,0,0,0,14.685,5C10.9,5,9.432,6.658,8.881,7.729A4.544,4.544,0,0,0,5.6,8.536,4.556,4.556,0,0,0,4,11.1a5.648,5.648,0,0,0-3.058,2.78,7.018,7.018,0,0,0-.3,4.631,3.476,3.476,0,0,0-.57,2.652,2.913,2.913,0,0,0,.913,1.512,4.772,4.772,0,0,0,1.157,3.376c2.015,2.346,6.03,2.673,6.823,2.716.2,2.608,2.19,5.182,6.564,5.829l.042.005c.039,0,.523.051,1.342.051a24.866,24.866,0,0,0,2.974-.186c2.58,2.439,3.381,5.749,3.97,8.191A16.854,16.854,0,0,0,24.5,44.9a.935.935,0,0,0,.865.582.922.922,0,0,0,.154-.013l4.232-.7a.935.935,0,0,0,.745-1.183,9.813,9.813,0,0,1-.374-2.532c.274.092.554.173.836.244a10.353,10.353,0,0,0,6.433-.346,6.121,6.121,0,0,0,3.812-4.1,5.376,5.376,0,0,0,.133-.765c1.6-.222,3.519-1.172,4.992-4.011.009-.017.017-.033.024-.051a17.944,17.944,0,0,0,1.272-4.893c.344-3.261-.491-5.832-2.423-7.5Zm0,0" transform="translate(0 -3.329)" fill="#42a895"/>
    <path id="Path_2161" data-name="Path 2161" d="M229.934,134.683a7.236,7.236,0,0,0,1.147,2.608,6.318,6.318,0,0,0,.79.919c-.168.961-1.638,1.487-1.672,1.5a.935.935,0,0,0,.6,1.772,4.7,4.7,0,0,0,2.677-2.184,6.379,6.379,0,0,0,2.657.541l.2,0a.935.935,0,0,0-.024-1.871h-.024a4.454,4.454,0,0,1-4.516-3.62.935.935,0,0,0-1.839.339Zm0,0" transform="translate(-208.177 -121.133)" fill="#42a895"/>
    <path id="Path_2162" data-name="Path 2162" d="M322.585,148.944a5.914,5.914,0,0,0,.159-6.373,6.992,6.992,0,0,0-2.177-2.193.935.935,0,0,0-.951,1.611,5.137,5.137,0,0,1,1.565,1.614,4.157,4.157,0,0,1-.221,4.412.935.935,0,1,0,1.624.929Zm0,0" transform="translate(-289.425 -127.182)" fill="#42a895"/>
    <path id="Path_2163" data-name="Path 2163" d="M393.771,230.815a.935.935,0,0,0-1.087-1.522,3.1,3.1,0,0,1-2.466.728,3.04,3.04,0,0,1-1.727-1.4.935.935,0,0,0-1.656.87,5.076,5.076,0,0,0,2.466,2.2,4.348,4.348,0,0,0,1.217,4.577.935.935,0,1,0,1.2-1.435,2.7,2.7,0,0,1-.539-2.921,5.69,5.69,0,0,0,2.592-1.1Zm0,0" transform="translate(-350.698 -206.867)" fill="#42a895"/>
    <path id="Path_2164" data-name="Path 2164" d="M95.52,184.606a.935.935,0,0,0-1.856.235,3,3,0,0,1-1.436,2.644,5.83,5.83,0,0,0-3.256-.444.935.935,0,0,0,.321,1.843,3.521,3.521,0,0,1,2.54.563,2.85,2.85,0,0,1,.775,2.324.935.935,0,0,0,.913.957h.022a.935.935,0,0,0,.935-.913,5.067,5.067,0,0,0-.8-3.091A4.6,4.6,0,0,0,95.52,184.606Zm0,0" transform="translate(-79.982 -166.664)" fill="#42a895"/>
    <path id="Path_2165" data-name="Path 2165" d="M49.925,108.544a2.093,2.093,0,0,1-.451.659,3.012,3.012,0,0,1-1.168.717.935.935,0,0,0,.493,1.8,4.875,4.875,0,0,0,2.141-1.353,3.566,3.566,0,0,0,2.162.706,4.289,4.289,0,0,0,.686-.056,5.443,5.443,0,0,0,1.94-.727.935.935,0,1,0-1.018-1.57,3.7,3.7,0,0,1-1.22.45,1.772,1.772,0,0,1-1.645-.48,5.16,5.16,0,0,0-.08-2.684.935.935,0,1,0-1.805.49,3.062,3.062,0,0,1-.02,2l-.017.041Zm0,0" transform="translate(-43.183 -95.506)" fill="#42a895"/>
    <path id="Path_2166" data-name="Path 2166" d="M266.812,48.933a4.878,4.878,0,0,0-3.472-.432.935.935,0,0,0,.5,1.8,2.964,2.964,0,0,1,2.021.237,2.537,2.537,0,0,1,1.086,1.7.936.936,0,0,0,.91.721.947.947,0,0,0,.215-.025.935.935,0,0,0,.7-1.125A4.321,4.321,0,0,0,266.812,48.933Zm0,0" transform="translate(-238.181 -43.851)" fill="#42a895"/>
    <path id="Path_2167" data-name="Path 2167" d="M212.75,239.288a3.383,3.383,0,0,1-2.862,1.823,4.792,4.792,0,0,1-1.826-.276.935.935,0,0,0-.712,1.73,6.488,6.488,0,0,0,2.315.423q.116,0,.235,0a5.207,5.207,0,0,0,4.465-2.754.935.935,0,0,0-1.617-.941Zm0,0" transform="translate(-187.508 -216.572)" fill="#42a895"/>
    <path id="Path_2168" data-name="Path 2168" d="M326.941,298.656a.935.935,0,1,0-.139,1.2A.941.941,0,0,0,326.941,298.656Zm0,0" transform="translate(-294.926 -270.454)" fill="#42a895"/>
    <path id="Path_2169" data-name="Path 2169" d="M221.513,1.292a.934.934,0,0,0,1.749-.057.935.935,0,1,0-1.749.057Zm0,0" transform="translate(-200.812)" fill="#42a895"/>
  </g>
</svg>
