<svg id="medical" xmlns="http://www.w3.org/2000/svg" width="42.104" height="42.104" viewBox="0 0 42.104 42.104">
  <path id="Path_2145" data-name="Path 2145" d="M214.7,218.4a3.7,3.7,0,1,0-3.7-3.7A3.7,3.7,0,0,0,214.7,218.4Zm0-4.934a1.234,1.234,0,1,1-1.234,1.234A1.235,1.235,0,0,1,214.7,213.467Z" transform="translate(-193.648 -193.648)" fill="#42a895"/>
  <ellipse id="Ellipse_76" data-name="Ellipse 76" cx="1" cy="2" rx="1" ry="2" transform="translate(13.011 18.951)" fill="#42a895"/>
  <ellipse id="Ellipse_77" data-name="Ellipse 77" cx="2" cy="1" rx="2" ry="1" transform="translate(19.011 12.951)" fill="#42a895"/>
  <ellipse id="Ellipse_78" data-name="Ellipse 78" cx="1" cy="2" rx="1" ry="2" transform="translate(27.011 18.951)" fill="#42a895"/>
  <ellipse id="Ellipse_79" data-name="Ellipse 79" cx="2" cy="1" rx="2" ry="1" transform="translate(19.011 26.951)" fill="#42a895"/>
  <path id="Path_2146" data-name="Path 2146" d="M.361,24.391a1.234,1.234,0,0,0,1.744,0l2.106-2.106h3.4a6.194,6.194,0,0,0,2.481,3.79,4.721,4.721,0,0,0-.141,1.144,4.9,4.9,0,0,0,.685,2.5l-2.43,2.43H5.228a1.234,1.234,0,0,0,0,2.467H7.483v2.255a1.234,1.234,0,1,0,2.467,0V33.9l2.43-2.43a4.9,4.9,0,0,0,2.5.685,4.721,4.721,0,0,0,1.144-.141,6.193,6.193,0,0,0,3.79,2.481v3.4L17.712,40a1.234,1.234,0,0,0,1.744,1.744l1.595-1.595,1.595,1.595A1.234,1.234,0,0,0,24.391,40l-2.106-2.106v-3.4a6.194,6.194,0,0,0,3.79-2.481,4.721,4.721,0,0,0,1.144.141,4.9,4.9,0,0,0,2.5-.685l2.43,2.43v2.978a1.234,1.234,0,1,0,2.467,0V34.62h2.255a1.234,1.234,0,0,0,0-2.467H33.9l-2.43-2.43a4.9,4.9,0,0,0,.685-2.5,4.721,4.721,0,0,0-.141-1.144,6.194,6.194,0,0,0,2.481-3.79h3.4L40,24.391a1.234,1.234,0,0,0,1.744-1.744l-1.595-1.595,1.595-1.595A1.234,1.234,0,0,0,40,17.712l-2.106,2.106h-3.4a6.194,6.194,0,0,0-2.481-3.79,4.721,4.721,0,0,0,.141-1.144,4.9,4.9,0,0,0-.685-2.5L33.9,9.95h2.978a1.234,1.234,0,0,0,0-2.467H34.62V5.228a1.234,1.234,0,1,0-2.467,0V8.205l-2.43,2.43a4.9,4.9,0,0,0-2.5-.685,4.721,4.721,0,0,0-1.144.141,6.194,6.194,0,0,0-3.79-2.481v-3.4l2.106-2.106A1.234,1.234,0,0,0,22.646.361L21.052,1.956,19.457.361a1.234,1.234,0,1,0-1.744,1.744l2.106,2.106v3.4a6.194,6.194,0,0,0-3.79,2.481,4.721,4.721,0,0,0-1.144-.141,4.9,4.9,0,0,0-2.5.685L9.95,8.205V5.228a1.234,1.234,0,1,0-2.467,0V7.483H5.228a1.234,1.234,0,0,0,0,2.467H8.206l2.43,2.43a4.9,4.9,0,0,0-.685,2.5,4.721,4.721,0,0,0,.141,1.144,6.194,6.194,0,0,0-2.481,3.79h-3.4L2.105,17.712A1.234,1.234,0,0,0,.361,19.457l1.595,1.595L.361,22.646a1.234,1.234,0,0,0,0,1.745Zm11.76-6.7a1.234,1.234,0,0,0,.583-1.688,2.431,2.431,0,0,1-.287-1.121,2.472,2.472,0,0,1,2.467-2.467,2.432,2.432,0,0,1,1.121.287,1.234,1.234,0,0,0,1.688-.583,3.683,3.683,0,0,1,6.717,0A1.234,1.234,0,0,0,26.1,12.7a2.432,2.432,0,0,1,1.121-.287,2.473,2.473,0,0,1,2.467,2.467,2.432,2.432,0,0,1-.287,1.121,1.234,1.234,0,0,0,.583,1.688,3.683,3.683,0,0,1,0,6.717A1.234,1.234,0,0,0,29.4,26.1a2.432,2.432,0,0,1,.287,1.121,2.472,2.472,0,0,1-2.467,2.467A2.432,2.432,0,0,1,26.1,29.4a1.234,1.234,0,0,0-1.688.583,3.683,3.683,0,0,1-6.717,0,1.234,1.234,0,0,0-1.688-.583,2.431,2.431,0,0,1-1.121.287,2.472,2.472,0,0,1-2.467-2.467A2.432,2.432,0,0,1,12.7,26.1a1.234,1.234,0,0,0-.583-1.688,3.683,3.683,0,0,1,0-6.717Z" transform="translate(0.001 0.001)" fill="#42a895"/>
</svg>
