<svg xmlns="http://www.w3.org/2000/svg" width="25.623" height="43.632" viewBox="0 0 25.623 43.632">
  <g id="ortho-02" transform="translate(0 0.78)">
    <path id="Path_2170" data-name="Path 2170" d="M163.538,21.852a4.268,4.268,0,0,1-3.057-.939c-.426-.359-.848-.728-1.26-1.1a1.99,1.99,0,0,0-2.281-.364c-.585.249-1.159.532-1.758.743a4,4,0,0,1-5.275-3.018,5.57,5.57,0,0,1,.23-2.616,6.622,6.622,0,0,1,2.784-3.847c.829-.551,1.682-1.073,2.477-1.667a9.216,9.216,0,0,0,3.186-4.609c.412-1.222.8-2.453,1.188-3.684.259-.81.412-.92,1.227-.723,1.586.383,3.167.791,4.748,1.193.048.01.091.029.139.043.517.163.628.307.532.838-.3,1.629-.613,3.253-.92,4.882-.139.733-.3,1.466-.407,2.209a4.939,4.939,0,0,0,.5,2.946c.45.934.968,1.845,1.4,2.793a5.079,5.079,0,0,1-.22,4.906A3.918,3.918,0,0,1,163.538,21.852Z" transform="translate(-142.654 0)" fill="none" stroke="#42a895" stroke-width="1.5"/>
    <path id="Path_2171" data-name="Path 2171" d="M182.744,475.417a4.776,4.776,0,0,0-.653,1.813c-.125,1.341-.287,2.678-.422,4.015s-.244,2.664-.364,4a5.237,5.237,0,0,1-.081.613.475.475,0,0,1-.479.422,3.351,3.351,0,0,1-.383.034c-1.61,0-1.8.359-3.409.345-.383,0-.517-.125-.561-.508-.067-.537-.1-1.078-.144-1.619q-.137-1.631-.268-3.263c-.072-.906-.139-1.811-.211-2.716a8.953,8.953,0,0,0-.436-2.582,5.7,5.7,0,0,0-1.48-2.146,5.41,5.41,0,0,1-1.725-2.7,4.277,4.277,0,0,1-.129-1.016.906.906,0,0,1,1.011-1.011,3.888,3.888,0,0,1,.781.077,4.239,4.239,0,0,0,3.478-.776c.335-.244.652-.513.968-.781a2.121,2.121,0,0,1,2.841-.182,4.845,4.845,0,0,0,3.109.9,6.427,6.427,0,0,0,2.367-.695,3.341,3.341,0,0,1,.6-.225.788.788,0,0,1,1.035.647,3.537,3.537,0,0,1-.11,1.629,12.188,12.188,0,0,1-.426,1.365,2.21,2.21,0,0,0-.038,1.6,1.646,1.646,0,0,1-.053,1.3,7.833,7.833,0,0,0-.613,2.64q-.216,2.911-.426,5.816-.122,1.667-.249,3.335a1.643,1.643,0,0,1-.125.479.862.862,0,0,1-1.049.493.766.766,0,0,1-.685-.838c0-1.27.038-2.534.024-3.8-.014-1.931-.057-3.862-.1-5.788,0-.225-.949-.658-1.012-.879C183.3,475.427,182.773,475.412,182.744,475.417Z" transform="translate(-163.759 -444.661)" fill="none" stroke="#42a895" stroke-width="1.5"/>
    <path id="Path_2172" data-name="Path 2172" d="M6.76,220.591c-.311-1.15-.623-2.295-.949-3.5-.925.834-1.816,1.643-2.712,2.448a.194.194,0,0,0-.043-.024c.359-1.145.719-2.285,1.1-3.483-1.236.2-2.419.4-3.608.594,0-.014-.014-.029-.019-.043.92-.767,1.845-1.533,2.812-2.338C2.2,213.75,1.1,213.271,0,212.8c0-.019,0-.034.01-.053,1.188-.144,2.372-.292,3.617-.446-.695-1.035-1.365-2.031-2.036-3.033.01-.014.024-.024.034-.038,1.078.517,2.156,1.04,3.291,1.586-.029-1.246-.053-2.443-.081-3.713.081.115.129.172.168.235q.755,1.236,1.514,2.467a.312.312,0,0,1,0,.4,6.988,6.988,0,0,0-1.169,3.809,3.833,3.833,0,0,0,2.046,3.517c.177.105.225.187.163.388-.254.886-.489,1.782-.728,2.673Z" transform="translate(0 -197.235)" fill="#42a895"/>
  </g>
</svg>
